<svg xmlns="http://www.w3.org/2000/svg" viewBox="0 0 120 120" width="120" height="120">
  <!-- Vapeur -->
  <path d="M42 18 C42 12 46 10 46 6" fill="none" stroke="#C1502E" stroke-width="2.5" stroke-linecap="round"/>
  <path d="M60 16 C60 10 64 8 64 4" fill="none" stroke="#C1502E" stroke-width="2.5" stroke-linecap="round"/>
  <path d="M78 18 C78 12 82 10 82 6" fill="none" stroke="#C1502E" stroke-width="2.5" stroke-linecap="round"/>

  <!-- Cloche -->
  <path d="M60 26 C38 26 22 44 22 62 L98 62 C98 44 82 26 60 26Z" fill="none" stroke="#2F4A2A" stroke-width="3" stroke-linejoin="round"/>

  <!-- Poignée de la cloche -->
  <rect x="53" y="20" width="14" height="8" rx="4" fill="none" stroke="#2F4A2A" stroke-width="2.8"/>

  <!-- Assiette -->
  <ellipse cx="60" cy="68" rx="42" ry="7" fill="none" stroke="#2F4A2A" stroke-width="3"/>
  <line x1="18" y1="68" x2="102" y2="68" stroke="#2F4A2A" stroke-width="3" stroke-linecap="round"/>

  <!-- Pied de l'assiette -->
  <path d="M40 75 L80 75" stroke="#2F4A2A" stroke-width="3" stroke-linecap="round"/>

  <!-- Étoile décorative -->
  <circle cx="90" cy="40" r="3" fill="#C8992C"/>
  <circle cx="28" cy="48" r="2" fill="#C8992C"/>

  <!-- Feuille déco -->
  <path d="M96 52 C100 46 106 48 104 54 C102 58 96 56 96 52Z" fill="#4B6B45" opacity="0.7"/>
</svg>
